<?xml version="1.0" encoding="UTF-8"?>
<!DOCTYPE svg PUBLIC "-//W3C//DTD SVG 1.1//EN" "http://www.w3.org/Graphics/SVG/1.1/DTD/svg11.dtd">
<!-- Creator: CorelDRAW X7 -->
<svg xmlns="http://www.w3.org/2000/svg" xml:space="preserve" width="47.2449mm" height="29.627mm" version="1.1" style="shape-rendering:geometricPrecision; text-rendering:geometricPrecision; image-rendering:optimizeQuality; fill-rule:evenodd; clip-rule:evenodd"
viewBox="0 0 1277 801"
 xmlns:xlink="http://www.w3.org/1999/xlink">
 <defs>
  <style type="text/css">
   <![CDATA[
    .fil0 {fill:#FEFEFE}
   ]]>
  </style>
 </defs>
 <g id="Layer_x0020_1">
  <metadata id="CorelCorpID_0Corel-Layer"/>
  <g id="_1878748405936">
   <path class="fil0" d="M210 38c0,87 132,-3 192,65l151 364c25,63 58,115 143,115l372 0c93,0 119,-52 145,-121 30,-78 94,-210 47,-262 -7,-8 -36,-27 -49,-27l-544 0c-30,0 -32,23 -38,47 27,40 40,39 105,39l457 -1c-2,27 -30,100 -42,130 -56,145 0,109 -463,109 -43,0 -63,-83 -79,-121 -20,-52 -36,-92 -57,-143 -98,-245 -88,-232 -302,-232 -22,0 -38,16 -38,38z"/>
   <path class="fil0" d="M1068 715c0,114 181,114 181,0 0,-116 -181,-116 -181,0z"/>
   <path class="fil0" d="M505 715c0,114 181,114 181,0 0,-116 -181,-116 -181,0z"/>
   <path class="fil0" d="M191 496l257 0c31,0 36,-19 38,-48 -36,-20 -258,-9 -314,-9 -40,0 -52,57 19,57z"/>
   <path class="fil0" d="M0 229c36,20 258,9 315,9 39,0 51,-57 -20,-57l-238 0c-39,0 -54,10 -57,48z"/>
   <path class="fil0" d="M67 343c0,22 6,29 28,29l277 0c25,0 28,-14 38,-29 -10,-15 -13,-28 -38,-28l-277 0c-22,0 -28,6 -28,28z"/>
  </g>
 </g>
</svg>
